# xmcd
#
# Track frame offsets: 
#        150
#        19857
#        35882
#        52310
#        68002
#        78687
#        91387
#        101917
#        113357
#        130475
#        148562
#        167267
#        186025
#        213292
#        226890
#        238420
#        247787
#        258697
#        274427
#        295042
#        320600
#
# Disc length: 4552 seconds
#
# Revision: 2
# Processed by: cddbd v1.5.2PL0 Copyright (c) Steve Scherf et al.
# Submitted via: ExactAudioCopy v0.95b4
#
DISCID=3a11c615
DTITLE=Jerry Lee Lewis - At the Palomino [CD2]
DYEAR=1999
DGENRE=Rock and Roll
TTITLE0=Thirty-nine and Holding
TTITLE1=She Even Woke Me Up to Say Goodbye
TTITLE2=I Wished I Was Eighteen Again
TTITLE3=Lucille
TTITLE4=Brown-Eyed Handsome Man
TTITLE5=Hey, Good Lookin'
TTITLE6=Roll Over Beethoven
TTITLE7=Chantilly Lace
TTITLE8=Little Queenie
TTITLE9=Johnny B. Goode
TTITLE10=No Headstone on My Grave
TTITLE11=Georgia on My Mind
TTITLE12=Mexicali Rose
TTITLE13=Will the Circle Be Unbroken
TTITLE14=I'll Find It Where I Can
TTITLE15=High School Confidential
TTITLE16=Boogie Woogie Country Man
TTITLE17=Middle Aged Crazy
TTITLE18=You Are My Sunshine
TTITLE19=Picture From Life's Other Side
TTITLE20=Over the Rainbow
EXTD=
EXTT0=
EXTT1=
EXTT2=
EXTT3=
EXTT4=
EXTT5=
EXTT6=
EXTT7=
EXTT8=
EXTT9=
EXTT10=
EXTT11=
EXTT12=
EXTT13=
EXTT14=
EXTT15=
EXTT16=
EXTT17=
EXTT18=
EXTT19=
EXTT20=
PLAYORDER=
